<?xml version="1.0" encoding="UTF-8" standalone="no"?>
<!-- Created with Inkscape (http://www.inkscape.org/) -->

<svg
   width="32"
   height="32"
   viewBox="0 0 32 32"
   version="1.1"
   id="svg1"
   inkscape:export-filename="soldier_black.svg"
   inkscape:export-xdpi="96"
   inkscape:export-ydpi="96"
   xmlns:inkscape="http://www.inkscape.org/namespaces/inkscape"
   xmlns:sodipodi="http://sodipodi.sourceforge.net/DTD/sodipodi-0.dtd"
   xmlns:xlink="http://www.w3.org/1999/xlink"
   xmlns="http://www.w3.org/2000/svg"
   xmlns:svg="http://www.w3.org/2000/svg">
  <sodipodi:namedview
     id="namedview1"
     pagecolor="#ffffff"
     bordercolor="#000000"
     borderopacity="0.25"
     inkscape:showpageshadow="2"
     inkscape:pageopacity="0.0"
     inkscape:pagecheckerboard="0"
     inkscape:deskcolor="#d1d1d1"
     inkscape:document-units="px"
     inkscape:zoom="18.141708"
     inkscape:cx="5.374356"
     inkscape:cy="14.745028"
     inkscape:window-width="1920"
     inkscape:window-height="1017"
     inkscape:window-x="-8"
     inkscape:window-y="-8"
     inkscape:window-maximized="1"
     inkscape:current-layer="layer1"
     inkscape:export-bgcolor="#ffffff00"
     showguides="true" />
  <defs
     id="defs1">
    <linearGradient
       id="swatch10"
       inkscape:swatch="solid">
      <stop
         style="stop-color:#000000;stop-opacity:1;"
         offset="0"
         id="stop10" />
    </linearGradient>
    <linearGradient
       id="swatch9"
       inkscape:swatch="solid">
      <stop
         style="stop-color:#000000;stop-opacity:1;"
         offset="0"
         id="stop9" />
    </linearGradient>
    <linearGradient
       id="swatch6"
       inkscape:swatch="solid">
      <stop
         style="stop-color:#ffffff;stop-opacity:1;"
         offset="0"
         id="stop6" />
    </linearGradient>
    <linearGradient
       id="swatch5"
       inkscape:swatch="solid">
      <stop
         style="stop-color:#ffffff;stop-opacity:1;"
         offset="0"
         id="stop5" />
    </linearGradient>
    <linearGradient
       id="swatch4"
       inkscape:swatch="solid">
      <stop
         style="stop-color:#000000;stop-opacity:1;"
         offset="0"
         id="stop4" />
    </linearGradient>
    <linearGradient
       id="swatch2"
       inkscape:swatch="solid">
      <stop
         style="stop-color:#000000;stop-opacity:1;"
         offset="0"
         id="stop2" />
    </linearGradient>
    <linearGradient
       inkscape:collect="always"
       xlink:href="#swatch2"
       id="linearGradient2"
       x1="8.7350435"
       y1="15.020508"
       x2="23.336143"
       y2="15.020508"
       gradientUnits="userSpaceOnUse" />
  </defs>
  <g
     inkscape:label="Layer 1"
     inkscape:groupmode="layer"
     id="layer1"
     style="fill:url(#linearGradient2)">
    <path
       id="path147"
       style="opacity:1;fill:#000000;fill-opacity:1;stroke:#000000;stroke-width:0.5;stroke-linecap:round;stroke-linejoin:round;stroke-miterlimit:5.2;stroke-dasharray:none;stroke-dashoffset:0;stroke-opacity:1;paint-order:stroke markers fill"
       d="m 15.105393,11.949181 c 0,0 -2.375003,3e-6 -3.875,0.875 -1.4999968,0.874999 0.875003,0.875003 2.125,1.9375 1.249997,1.062497 -2.125006,8.187506 -3.7499998,9.8125 -1.624995,1.624996 5.6249998,1.5 5.6249998,1.5 z m 0.375,0 -0.125,14.125 c 0,0 7.249994,0.124996 5.625,-1.5 -1.624994,-1.624994 -4.999997,-8.750003 -3.75,-9.8125 1.249997,-1.062497 3.624997,-1.062501 2.125,-1.9375 -1.499997,-0.874997 -3.875,-0.875 -3.875,-0.875 z"
       inkscape:label="Body" />
    <circle
       style="opacity:1;fill:#000000;fill-opacity:1;stroke:#000000;stroke-width:0.5;stroke-linecap:round;stroke-linejoin:round;stroke-miterlimit:5.2;stroke-dasharray:none;stroke-dashoffset:0;stroke-opacity:1;paint-order:stroke markers fill"
       id="path86"
       cx="15.292893"
       cy="8.6178646"
       r="4.1542525"
       inkscape:label="Head" />
    <path
       id="path87-3"
       style="fill:#ffffff;fill-opacity:1;stroke:#ffffff;stroke-width:0.2029;stroke-linecap:round;stroke-linejoin:round;stroke-miterlimit:5.2;stroke-dasharray:none;stroke-dashoffset:0;stroke-opacity:1;paint-order:stroke markers fill"
       d="m 11.336713,13.002147 a 7.0522277,2.0112409 0 0 0 7.9124,0.03582 2.5414524,8.9152219 89.606834 0 1 -0.588735,-0.137477 2.5414524,8.9152219 89.606834 0 1 -0.67699,-0.219865 2.5414524,8.9152219 89.606834 0 1 -5.504294,-0.0037 2.5414524,8.9152219 89.606834 0 1 -0.624135,0.203684 2.5414524,8.9152219 89.606834 0 1 -0.518246,0.12148 z"
       inkscape:label="NeckShine" />
    <path
       id="path87"
       style="opacity:1;fill:#ffffff;fill-opacity:1;stroke:#ffffff;stroke-width:0.2;stroke-linecap:round;stroke-linejoin:round;stroke-miterlimit:5.2;stroke-dasharray:none;stroke-dashoffset:0;stroke-opacity:1;paint-order:stroke markers fill"
       d="m 14.648362,4.9687122 a 3.7123106,3.7123106 0 0 0 -2.982422,2.9082032 4.640388,4.7441454 0 0 1 0.398437,-0.041016 4.640388,4.7441454 0 0 1 0.539063,0.033203 4.640388,4.7441454 0 0 1 2.046875,-2.0507812 4.640388,4.7441454 0 0 1 -0.03516,-0.4980469 4.640388,4.7441454 0 0 1 0.0332,-0.3515625 z"
       inkscape:label="HeadShine" />
    <path
       id="path171"
       style="opacity:1;fill:#ffffff;fill-opacity:1;stroke:none;stroke-width:0.00801912;stroke-linecap:round;stroke-linejoin:round;stroke-miterlimit:4.9;stroke-dasharray:none;stroke-dashoffset:0;stroke-opacity:1;paint-order:normal"
       d="m 10.416124,22.900353 a 4.0027387,3.5625 0 0 1 -0.8917478,1.236328 9.7296345,2.09375 0 0 0 6.1667278,0.478516 9.7296345,2.09375 0 0 0 5.430067,-0.357422 4.0027387,3.5625 0 0 1 -0.903991,-1.335937 9.7296345,2.09375 0 0 1 -4.819924,0.279297 9.7296345,2.09375 0 0 1 -4.981132,-0.300782 z" />
  </g>
</svg>
